G04*
G04 #@! TF.GenerationSoftware,Altium Limited,Altium Designer,18.1.9 (240)*
G04*
G04 Layer_Physical_Order=1*
G04 Layer_Color=255*
%FSLAX25Y25*%
%MOIN*%
G70*
G01*
G75*
%ADD12R,0.03937X0.05906*%
%ADD13R,0.04331X0.03937*%
%ADD21C,0.03400*%
%ADD22C,0.04000*%
%ADD23C,0.02000*%
%ADD24R,0.07087X0.07087*%
%ADD25C,0.07087*%
%ADD26R,0.07874X0.11811*%
%ADD27R,0.11811X0.07874*%
%ADD28C,0.06800*%
G36*
X176291Y130238D02*
X151680Y105627D01*
X150805Y104561D01*
X150155Y103345D01*
X149757Y102034D01*
X122903D01*
X122777Y102534D01*
X123391Y102862D01*
X124692Y103930D01*
X125760Y105231D01*
X126553Y106715D01*
X127042Y108325D01*
X127207Y110000D01*
X127042Y111675D01*
X126553Y113285D01*
X125760Y114769D01*
X124692Y116070D01*
X123391Y117138D01*
X121907Y117931D01*
X120297Y118420D01*
X118622Y118585D01*
X116947Y118420D01*
X115337Y117931D01*
X114685Y117583D01*
X114033Y117931D01*
X112423Y118420D01*
X110748Y118585D01*
X109073Y118420D01*
X107463Y117931D01*
X106811Y117583D01*
X106159Y117931D01*
X104549Y118420D01*
X102874Y118585D01*
X101199Y118420D01*
X99589Y117931D01*
X98937Y117583D01*
X98285Y117931D01*
X96675Y118420D01*
X95000Y118585D01*
X93325Y118420D01*
X91715Y117931D01*
X91063Y117583D01*
X90411Y117931D01*
X88801Y118420D01*
X87126Y118585D01*
X85451Y118420D01*
X83841Y117931D01*
X82357Y117138D01*
X81056Y116070D01*
X79988Y114769D01*
X79195Y113285D01*
X78706Y111675D01*
X78541Y110000D01*
X78706Y108325D01*
X79195Y106715D01*
X79988Y105231D01*
X81056Y103930D01*
X82357Y102862D01*
X83841Y102069D01*
X85451Y101580D01*
X87097Y101418D01*
X87129Y101377D01*
X87205Y100909D01*
X87092Y100848D01*
X86026Y99974D01*
X20087Y34034D01*
X19053D01*
X18796Y34463D01*
X18931Y34715D01*
X19420Y36325D01*
X19585Y38000D01*
X19420Y39675D01*
X18931Y41285D01*
X18138Y42769D01*
X17949Y43000D01*
X18138Y43231D01*
X18931Y44715D01*
X19420Y46325D01*
X19585Y48000D01*
X19451Y49355D01*
X19543Y49457D01*
X19543D01*
Y66543D01*
X4300D01*
Y125000D01*
Y125139D01*
X4407Y125397D01*
X4603Y125593D01*
X4861Y125700D01*
X5000D01*
Y126192D01*
X5192Y127158D01*
X5569Y128068D01*
X6116Y128887D01*
X6813Y129584D01*
X7632Y130131D01*
X8541Y130508D01*
X9507Y130700D01*
X176099D01*
X176291Y130238D01*
D02*
G37*
G36*
X294988Y97064D02*
X294867Y96579D01*
X294270Y96398D01*
X292811Y95618D01*
X291532Y94568D01*
X291365Y94366D01*
X290767Y94424D01*
X290598Y94740D01*
X289760Y95761D01*
X279761Y105761D01*
X278740Y106598D01*
X277576Y107220D01*
X276313Y107603D01*
X275000Y107732D01*
X261000D01*
X259687Y107603D01*
X258424Y107220D01*
X257260Y106598D01*
X256240Y105761D01*
X252447Y101969D01*
X249488D01*
Y88032D01*
X249173Y87953D01*
Y86732D01*
X249000D01*
X247687Y86603D01*
X246424Y86220D01*
X245260Y85598D01*
X244239Y84760D01*
X234211Y74732D01*
X231370D01*
X231133Y75232D01*
X232018Y76311D01*
X232798Y77770D01*
X233278Y79353D01*
X233441Y81000D01*
X233278Y82647D01*
X232798Y84230D01*
X232018Y85689D01*
X231968Y85750D01*
Y97953D01*
X220639D01*
X220603Y98313D01*
X220220Y99576D01*
X219598Y100740D01*
X218760Y101760D01*
X214016Y106505D01*
Y113543D01*
X231968D01*
Y121966D01*
X270087D01*
X294988Y97064D01*
D02*
G37*
G36*
X278026Y88453D02*
X277819Y87953D01*
X270979D01*
X270512Y88032D01*
Y94268D01*
X272211D01*
X278026Y88453D01*
D02*
G37*
G36*
X200315Y113543D02*
X200551D01*
Y103717D01*
X200680Y102403D01*
X201063Y101140D01*
X201686Y99976D01*
X202523Y98956D01*
X203064Y98415D01*
X202873Y97953D01*
X200315D01*
Y82047D01*
X199848Y81968D01*
X199488D01*
Y72340D01*
X199026Y72148D01*
X194414Y76761D01*
X193394Y77598D01*
X192230Y78220D01*
X190967Y78603D01*
X189654Y78732D01*
X181968D01*
Y87953D01*
X170979D01*
X170512Y88032D01*
Y101969D01*
X168569D01*
X168378Y102430D01*
X187914Y121966D01*
X200315D01*
Y113543D01*
D02*
G37*
G36*
X306929Y87973D02*
Y76496D01*
X306929D01*
X307021Y76394D01*
X306888Y75039D01*
X307053Y73365D01*
X307541Y71754D01*
X308184Y70552D01*
X307814Y70183D01*
X306663Y70798D01*
X305080Y71279D01*
X304232Y71362D01*
Y83562D01*
X304518Y83911D01*
X305298Y85370D01*
X305779Y86953D01*
X305889Y88076D01*
X306929Y87973D01*
D02*
G37*
G36*
X272025Y71585D02*
X262172Y61732D01*
X240548D01*
X240423Y62232D01*
X240740Y62402D01*
X241760Y63240D01*
X250568Y72047D01*
X271833D01*
X272025Y71585D01*
D02*
G37*
G36*
X339000Y130700D02*
X339000Y130700D01*
X339758Y130700D01*
X341246Y130404D01*
X342647Y129824D01*
X343908Y128981D01*
X344981Y127908D01*
X345824Y126647D01*
X346404Y125246D01*
X346700Y123758D01*
X346700Y123000D01*
X346700Y120200D01*
X347500Y12300D01*
Y11670D01*
X347254Y10433D01*
X346772Y9268D01*
X346071Y8220D01*
X345638Y7787D01*
X345207Y7621D01*
X345207Y7621D01*
X344788Y7235D01*
X344787Y7234D01*
X344237Y6862D01*
X343842Y6594D01*
X343001Y6242D01*
X342759Y6147D01*
X342414Y6078D01*
X341944Y5983D01*
X341603Y5925D01*
X341100Y5900D01*
X341730Y5900D01*
X341778Y5909D01*
X342552Y6063D01*
X342865Y6126D01*
X343005Y6089D01*
X343177Y5557D01*
X341842Y4200D01*
X264807D01*
X264616Y4662D01*
X304632Y44677D01*
X305080Y44721D01*
X306663Y45202D01*
X308122Y45982D01*
X309401Y47032D01*
X310352Y48190D01*
X310703Y47901D01*
X312187Y47108D01*
X313798Y46620D01*
X315472Y46455D01*
X317147Y46620D01*
X318758Y47108D01*
X320216Y47888D01*
X321675Y47108D01*
X323286Y46620D01*
X324961Y46455D01*
X326635Y46620D01*
X328246Y47108D01*
X329730Y47901D01*
X331031Y48969D01*
X332099Y50270D01*
X332892Y51754D01*
X333380Y53365D01*
X333545Y55039D01*
X333380Y56714D01*
X332892Y58325D01*
X332099Y59809D01*
X331909Y60039D01*
X332099Y60270D01*
X332892Y61754D01*
X333380Y63365D01*
X333545Y65039D01*
X333380Y66714D01*
X332892Y68325D01*
X332099Y69809D01*
X331909Y70039D01*
X332099Y70270D01*
X332892Y71754D01*
X333380Y73365D01*
X333545Y75039D01*
X333380Y76714D01*
X332892Y78325D01*
X332099Y79809D01*
X331909Y80039D01*
X332099Y80270D01*
X332892Y81754D01*
X333380Y83365D01*
X333545Y85039D01*
X333380Y86714D01*
X332892Y88325D01*
X332099Y89809D01*
X331031Y91110D01*
X329730Y92177D01*
X328246Y92971D01*
X326635Y93459D01*
X324961Y93624D01*
X324691Y93597D01*
X324337Y93951D01*
X324441Y95000D01*
X324278Y96647D01*
X323798Y98230D01*
X323018Y99689D01*
X321968Y100968D01*
X320689Y102018D01*
X319230Y102798D01*
X317647Y103279D01*
X316000Y103441D01*
X314353Y103279D01*
X312770Y102798D01*
X311340Y102034D01*
X309913D01*
X281709Y130238D01*
X281901Y130700D01*
X339000D01*
X339000Y130700D01*
D02*
G37*
G36*
X290768Y70718D02*
Y66100D01*
X290897Y64787D01*
X291280Y63524D01*
X291902Y62360D01*
X292740Y61339D01*
X295840Y58240D01*
X296407Y57774D01*
X296415Y57689D01*
X295635Y56230D01*
X295155Y54647D01*
X295111Y54198D01*
X282379Y41467D01*
X281894Y41589D01*
X281656Y42372D01*
X280892Y43802D01*
Y48504D01*
X280827Y49168D01*
Y56457D01*
X276592D01*
X276400Y56919D01*
X289760Y70279D01*
X290268Y70897D01*
X290768Y70718D01*
D02*
G37*
G36*
X82473Y75958D02*
X82862Y75231D01*
X83930Y73930D01*
X85231Y72862D01*
X86715Y72069D01*
X88325Y71580D01*
X90000Y71415D01*
X91675Y71580D01*
X93285Y72069D01*
X94769Y72862D01*
X95000Y73051D01*
X95231Y72862D01*
X96715Y72069D01*
X98325Y71580D01*
X100000Y71415D01*
X101675Y71580D01*
X103285Y72069D01*
X104769Y72862D01*
X105000Y73051D01*
X105231Y72862D01*
X106715Y72069D01*
X108325Y71580D01*
X110000Y71415D01*
X111355Y71549D01*
X111457Y71457D01*
Y71457D01*
X128543D01*
Y75165D01*
X129043Y75236D01*
X130032Y74032D01*
X131311Y72982D01*
X132770Y72202D01*
X134353Y71722D01*
X136000Y71559D01*
X137647Y71722D01*
X139230Y72202D01*
X140689Y72982D01*
X141037Y73268D01*
X150315D01*
Y72047D01*
X155715D01*
X160523Y67239D01*
X161543Y66402D01*
X162707Y65780D01*
X163970Y65397D01*
X165284Y65268D01*
X186865D01*
X199488Y52644D01*
Y48031D01*
X199173Y47953D01*
Y32047D01*
X230827D01*
Y47953D01*
X231196Y48268D01*
X249173D01*
Y40551D01*
X263110D01*
Y48268D01*
X264961D01*
X266274Y48397D01*
X266324Y48412D01*
X266824Y48041D01*
Y43802D01*
X266060Y42372D01*
X265589Y40820D01*
X240307Y15538D01*
X238164D01*
X236734Y16302D01*
X235151Y16782D01*
X233504Y16945D01*
X231857Y16782D01*
X230784Y16457D01*
X216890D01*
Y9168D01*
X216847Y8732D01*
X213110D01*
Y16457D01*
X199173D01*
Y8732D01*
X173789D01*
X144323Y38199D01*
X144279Y38647D01*
X143798Y40230D01*
X143018Y41689D01*
X141968Y42968D01*
X140689Y44018D01*
X139230Y44798D01*
X137647Y45278D01*
X136000Y45441D01*
X134353Y45278D01*
X132770Y44798D01*
X131311Y44018D01*
X130032Y42968D01*
X128982Y41689D01*
X128202Y40230D01*
X127722Y38647D01*
X127559Y37000D01*
X127722Y35353D01*
X128202Y33770D01*
X128982Y32311D01*
X130032Y31032D01*
X131311Y29982D01*
X132770Y29202D01*
X134353Y28721D01*
X134801Y28677D01*
X158817Y4662D01*
X158626Y4200D01*
X9200D01*
X9200Y4200D01*
X8717Y4200D01*
X7771Y4388D01*
X6879Y4758D01*
X6076Y5294D01*
X5394Y5976D01*
X4858Y6779D01*
X4488Y7671D01*
X4300Y8617D01*
X4300Y9100D01*
Y21181D01*
X4771Y21349D01*
X5032Y21032D01*
X6311Y19982D01*
X7770Y19202D01*
X9353Y18722D01*
X11000Y18559D01*
X12647Y18722D01*
X14230Y19202D01*
X15660Y19966D01*
X23000D01*
X24372Y20101D01*
X25692Y20502D01*
X26908Y21152D01*
X27974Y22026D01*
X81979Y76031D01*
X82473Y75958D01*
D02*
G37*
%LPC*%
G36*
X57874Y115591D02*
X40000D01*
Y103740D01*
X34252D01*
Y115591D01*
X16378D01*
Y93779D01*
X26181D01*
Y85866D01*
X47992D01*
Y93779D01*
X57874D01*
Y115591D01*
D02*
G37*
G36*
X120000Y58585D02*
X118325Y58420D01*
X116715Y57931D01*
X115231Y57138D01*
X115000Y56949D01*
X114769Y57138D01*
X113285Y57931D01*
X111675Y58420D01*
X110000Y58585D01*
X108325Y58420D01*
X106715Y57931D01*
X105231Y57138D01*
X105000Y56949D01*
X104769Y57138D01*
X103285Y57931D01*
X101675Y58420D01*
X100000Y58585D01*
X98325Y58420D01*
X96715Y57931D01*
X95231Y57138D01*
X95000Y56949D01*
X94769Y57138D01*
X93285Y57931D01*
X91675Y58420D01*
X90000Y58585D01*
X88325Y58420D01*
X86715Y57931D01*
X85231Y57138D01*
X83930Y56070D01*
X82862Y54769D01*
X82069Y53285D01*
X81580Y51675D01*
X81415Y50000D01*
X81580Y48325D01*
X82069Y46715D01*
X82862Y45231D01*
X83930Y43930D01*
X85231Y42862D01*
X86715Y42069D01*
X88325Y41580D01*
X90000Y41415D01*
X91675Y41580D01*
X93285Y42069D01*
X94769Y42862D01*
X95000Y43051D01*
X95231Y42862D01*
X96715Y42069D01*
X98325Y41580D01*
X100000Y41415D01*
X101675Y41580D01*
X103285Y42069D01*
X104769Y42862D01*
X105000Y43051D01*
X105231Y42862D01*
X106715Y42069D01*
X108325Y41580D01*
X110000Y41415D01*
X111675Y41580D01*
X113285Y42069D01*
X114769Y42862D01*
X115000Y43051D01*
X115231Y42862D01*
X116715Y42069D01*
X118325Y41580D01*
X120000Y41415D01*
X121675Y41580D01*
X123285Y42069D01*
X124769Y42862D01*
X126070Y43930D01*
X127138Y45231D01*
X127931Y46715D01*
X128420Y48325D01*
X128585Y50000D01*
X128420Y51675D01*
X127931Y53285D01*
X127138Y54769D01*
X126070Y56070D01*
X124769Y57138D01*
X123285Y57931D01*
X121675Y58420D01*
X120000Y58585D01*
D02*
G37*
G36*
X164252Y56457D02*
X150315D01*
Y40551D01*
X164252D01*
Y56457D01*
D02*
G37*
G36*
X181968D02*
X168032D01*
Y44750D01*
X167982Y44689D01*
X167202Y43230D01*
X166721Y41647D01*
X166559Y40000D01*
X166721Y38353D01*
X167202Y36770D01*
X167982Y35311D01*
X169032Y34032D01*
X170311Y32982D01*
X171770Y32202D01*
X173353Y31721D01*
X175000Y31559D01*
X176647Y31721D01*
X178230Y32202D01*
X179689Y32982D01*
X180968Y34032D01*
X182018Y35311D01*
X182798Y36770D01*
X183279Y38353D01*
X183441Y40000D01*
X183279Y41647D01*
X182798Y43230D01*
X182018Y44689D01*
X181968Y44750D01*
Y56457D01*
D02*
G37*
%LPD*%
D12*
X175000Y80000D02*
D03*
X157283D02*
D03*
Y48504D02*
D03*
X175000D02*
D03*
X166142Y80000D02*
D03*
X223858Y40000D02*
D03*
X206142D02*
D03*
Y8504D02*
D03*
X223858D02*
D03*
X215000Y40000D02*
D03*
X273858Y80000D02*
D03*
X256142D02*
D03*
Y48504D02*
D03*
X273858D02*
D03*
X265000Y80000D02*
D03*
X225000Y121496D02*
D03*
X207283D02*
D03*
Y90000D02*
D03*
X225000D02*
D03*
X216142Y121496D02*
D03*
D13*
X213347Y55000D02*
D03*
X206653D02*
D03*
X163347Y95000D02*
D03*
X156653D02*
D03*
X263347D02*
D03*
X256653D02*
D03*
X213347Y75000D02*
D03*
X206653D02*
D03*
D21*
X297500Y66100D02*
Y88600D01*
Y66100D02*
X300600Y63000D01*
X303433D01*
X157283Y82000D02*
Y86283D01*
X163347Y92347D02*
Y95000D01*
X157283Y86283D02*
X163347Y92347D01*
X275000Y101000D02*
X285000Y91000D01*
Y75039D02*
Y91000D01*
X264961Y55000D02*
X285000Y75039D01*
X136000Y37000D02*
X137000D01*
X171000Y2000D02*
X252433D01*
X136000Y37000D02*
X171000Y2000D01*
X252433D02*
X303433Y53000D01*
X225000Y81000D02*
Y90000D01*
X303000Y53000D02*
X303433D01*
X263347Y90346D02*
Y95000D01*
X256142Y83142D02*
X263347Y90346D01*
X256142Y80000D02*
Y83142D01*
X249000Y80000D02*
X256142D01*
X237000Y68000D02*
X249000Y80000D01*
X211000Y68000D02*
X237000D01*
X206653Y72347D02*
X211000Y68000D01*
X206653Y72347D02*
Y75000D01*
X213347Y55000D02*
X264961D01*
X261000Y101000D02*
X275000D01*
X257000Y97000D02*
X261000Y101000D01*
X257000Y95346D02*
Y97000D01*
X213347Y47205D02*
Y55000D01*
X206142Y40000D02*
X213347Y47205D01*
X214000Y75653D02*
Y97000D01*
X207283Y103717D02*
X214000Y97000D01*
X207283Y103717D02*
Y121496D01*
X136000Y80000D02*
X157283D01*
X165284Y72000D01*
X189654D01*
X206653Y55000D01*
X175000Y40000D02*
Y48504D01*
D22*
X233504Y8504D02*
X243220D01*
X273858Y39142D01*
X307000Y95000D02*
X316000D01*
X223858Y8504D02*
X233504D01*
X273858Y39142D02*
Y48504D01*
X11000Y27000D02*
X23000D01*
X91000Y95000D01*
X273000Y129000D02*
X307000Y95000D01*
X185000Y129000D02*
X273000D01*
X156653Y100654D02*
X185000Y129000D01*
X156653Y95000D02*
Y100654D01*
X91000Y95000D02*
X156653D01*
D23*
X25315Y104685D02*
X27205D01*
D24*
X11000Y58000D02*
D03*
X315472Y85039D02*
D03*
X120000Y80000D02*
D03*
D25*
X11000Y48000D02*
D03*
Y38000D02*
D03*
X95000Y110000D02*
D03*
X87126D02*
D03*
X102874D02*
D03*
X110748D02*
D03*
X118622D02*
D03*
X324961Y65039D02*
D03*
Y55039D02*
D03*
Y75039D02*
D03*
Y85039D02*
D03*
X315472Y75039D02*
D03*
Y55039D02*
D03*
Y65039D02*
D03*
X90000Y50000D02*
D03*
X100000D02*
D03*
X110000D02*
D03*
X120000D02*
D03*
X90000Y80000D02*
D03*
X100000D02*
D03*
X110000D02*
D03*
D26*
X48937Y104685D02*
D03*
X25315D02*
D03*
D27*
X37087Y94803D02*
D03*
D28*
X297500Y88600D02*
D03*
X303433Y63000D02*
D03*
X316000Y95000D02*
D03*
X136000Y80000D02*
D03*
Y37000D02*
D03*
X233504Y8504D02*
D03*
X225000Y81000D02*
D03*
X273858Y39142D02*
D03*
X303433Y53000D02*
D03*
X11000Y27000D02*
D03*
X175000Y40000D02*
D03*
M02*
