M48
;Layer_Color=9474304
;FILE_FORMAT=2:5
INCH,LZ
;TYPE=PLATED
T1F00S00C0.02756
T2F00S00C0.03400
T3F00S00C0.03543
T4F00S00C0.03937
%
T01
X0095Y011
X0102874
X0110748
T02
X0011Y0027
X0136Y0037
X0175Y004
X0233504Y0008504
X0273858Y0039142
X0303433Y0053
Y0063
X02975Y00886
X0316Y0095
X0225Y0081
X0136Y008
T03
X0011Y0038
Y0048
X009Y005
X01
X011
X012
X0315472Y0055039
X0324961
Y0065039
X0315472
Y0075039
X0324961
Y0085039
X0315472
X012Y008
X011
X01
X009
X0011Y0058
T04
X0087126Y011
X0118622
M30
