G04*
G04 #@! TF.GenerationSoftware,Altium Limited,Altium Designer,18.1.9 (240)*
G04*
G04 Layer_Color=255*
%FSLAX25Y25*%
%MOIN*%
G70*
G01*
G75*
%ADD12R,0.03937X0.05906*%
%ADD13R,0.04331X0.03937*%
%ADD24R,0.07087X0.07087*%
%ADD25C,0.07087*%
%ADD26R,0.07874X0.11811*%
%ADD27R,0.11811X0.07874*%
D12*
X175000Y80000D02*
D03*
X157283D02*
D03*
Y48504D02*
D03*
X175000D02*
D03*
X166142Y80000D02*
D03*
X223858Y40000D02*
D03*
X206142D02*
D03*
Y8504D02*
D03*
X223858D02*
D03*
X215000Y40000D02*
D03*
X273858Y80000D02*
D03*
X256142D02*
D03*
Y48504D02*
D03*
X273858D02*
D03*
X265000Y80000D02*
D03*
X225000Y121496D02*
D03*
X207283D02*
D03*
Y90000D02*
D03*
X225000D02*
D03*
X216142Y121496D02*
D03*
D13*
X213347Y55000D02*
D03*
X206653D02*
D03*
X163347Y95000D02*
D03*
X156653D02*
D03*
X263347D02*
D03*
X256653D02*
D03*
X213347Y75000D02*
D03*
X206653D02*
D03*
D24*
X11000Y58000D02*
D03*
X315472Y85039D02*
D03*
X120000Y80000D02*
D03*
D25*
X11000Y48000D02*
D03*
Y38000D02*
D03*
X95000Y110000D02*
D03*
X87126D02*
D03*
X102874D02*
D03*
X110748D02*
D03*
X118622D02*
D03*
X324961Y65039D02*
D03*
Y55039D02*
D03*
Y75039D02*
D03*
Y85039D02*
D03*
X315472Y75039D02*
D03*
Y55039D02*
D03*
Y65039D02*
D03*
X90000Y50000D02*
D03*
X100000D02*
D03*
X110000D02*
D03*
X120000D02*
D03*
X90000Y80000D02*
D03*
X100000D02*
D03*
X110000D02*
D03*
D26*
X48937Y104685D02*
D03*
X25315D02*
D03*
D27*
X37087Y94803D02*
D03*
M02*
