G04*
G04 #@! TF.GenerationSoftware,Altium Limited,Altium Designer,18.1.9 (240)*
G04*
G04 Layer_Color=16711935*
%FSLAX25Y25*%
%MOIN*%
G70*
G01*
G75*
%ADD16R,0.07887X0.07887*%
%ADD17C,0.07887*%
%ADD18R,0.08674X0.12611*%
%ADD19R,0.12611X0.08674*%
%ADD20C,0.07600*%
D16*
X11000Y58000D02*
D03*
X315472Y85039D02*
D03*
X120000Y80000D02*
D03*
D17*
X11000Y48000D02*
D03*
Y38000D02*
D03*
X95000Y110000D02*
D03*
X87126D02*
D03*
X102874D02*
D03*
X110748D02*
D03*
X118622D02*
D03*
X324961Y65039D02*
D03*
Y55039D02*
D03*
Y75039D02*
D03*
Y85039D02*
D03*
X315472Y75039D02*
D03*
Y55039D02*
D03*
Y65039D02*
D03*
X90000Y50000D02*
D03*
X100000D02*
D03*
X110000D02*
D03*
X120000D02*
D03*
X90000Y80000D02*
D03*
X100000D02*
D03*
X110000D02*
D03*
D18*
X48937Y104685D02*
D03*
X25315D02*
D03*
D19*
X37087Y94803D02*
D03*
D20*
X297500Y88600D02*
D03*
X303433Y63000D02*
D03*
X316000Y95000D02*
D03*
X136000Y80000D02*
D03*
Y37000D02*
D03*
X233504Y8504D02*
D03*
X225000Y81000D02*
D03*
X273858Y39142D02*
D03*
X303433Y53000D02*
D03*
X11000Y27000D02*
D03*
X175000Y40000D02*
D03*
M02*
