G04*
G04 #@! TF.GenerationSoftware,Altium Limited,Altium Designer,18.1.9 (240)*
G04*
G04 Layer_Color=128*
%FSLAX25Y25*%
%MOIN*%
G70*
G01*
G75*
%ADD30C,0.00200*%
D30*
X9228Y58000D02*
X12772D01*
X11000Y56228D02*
Y59772D01*
X9228Y48000D02*
X12772D01*
X11000Y46228D02*
Y49772D01*
X9228Y38000D02*
X12772D01*
X11000Y36228D02*
Y39772D01*
X93622Y110000D02*
X96378D01*
X95000Y108622D02*
Y111378D01*
X85158Y110000D02*
X89095D01*
X87126Y108031D02*
Y111969D01*
X101496Y110000D02*
X104252D01*
X102874Y108622D02*
Y111378D01*
X109370Y110000D02*
X112126D01*
X110748Y108622D02*
Y111378D01*
X116654Y110000D02*
X120591D01*
X118622Y108031D02*
Y111969D01*
X323189Y65039D02*
X326732D01*
X324961Y63268D02*
Y66811D01*
X323189Y55039D02*
X326732D01*
X324961Y53268D02*
Y56811D01*
X323189Y75039D02*
X326732D01*
X324961Y73268D02*
Y76811D01*
X323189Y85039D02*
X326732D01*
X324961Y83268D02*
Y86811D01*
X313701Y85039D02*
X317244D01*
X315472Y83268D02*
Y86811D01*
X313701Y75039D02*
X317244D01*
X315472Y73268D02*
Y76811D01*
X313701Y55039D02*
X317244D01*
X315472Y53268D02*
Y56811D01*
X313701Y65039D02*
X317244D01*
X315472Y63268D02*
Y66811D01*
X46968Y104685D02*
X50906D01*
X48937Y102717D02*
Y106653D01*
X23347Y104685D02*
X27283D01*
X25315Y102717D02*
Y106653D01*
X35118Y94803D02*
X39055D01*
X37087Y92835D02*
Y96772D01*
X88228Y50000D02*
X91772D01*
X90000Y48228D02*
Y51772D01*
X98228Y50000D02*
X101772D01*
X100000Y48228D02*
Y51772D01*
X108228Y50000D02*
X111772D01*
X110000Y48228D02*
Y51772D01*
X118228Y50000D02*
X121772D01*
X120000Y48228D02*
Y51772D01*
X88228Y80000D02*
X91772D01*
X90000Y78228D02*
Y81772D01*
X98228Y80000D02*
X101772D01*
X100000Y78228D02*
Y81772D01*
X108228Y80000D02*
X111772D01*
X110000Y78228D02*
Y81772D01*
X118228Y80000D02*
X121772D01*
X120000Y78228D02*
Y81772D01*
X295800Y88600D02*
X299200D01*
X297500Y86900D02*
Y90300D01*
X301733Y63000D02*
X305133D01*
X303433Y61300D02*
Y64700D01*
X314300Y95000D02*
X317700D01*
X316000Y93300D02*
Y96700D01*
X134300Y80000D02*
X137700D01*
X136000Y78300D02*
Y81700D01*
X134300Y37000D02*
X137700D01*
X136000Y35300D02*
Y38700D01*
X231804Y8504D02*
X235204D01*
X233504Y6804D02*
Y10204D01*
X223300Y81000D02*
X226700D01*
X225000Y79300D02*
Y82700D01*
X272158Y39142D02*
X275558D01*
X273858Y37442D02*
Y40842D01*
X301733Y53000D02*
X305133D01*
X303433Y51300D02*
Y54700D01*
X9300Y27000D02*
X12700D01*
X11000Y25300D02*
Y28700D01*
X173300Y40000D02*
X176700D01*
X175000Y38300D02*
Y41700D01*
M02*
