G04*
G04 #@! TF.GenerationSoftware,Altium Limited,Altium Designer,18.1.9 (240)*
G04*
G04 Layer_Color=65535*
%FSLAX25Y25*%
%MOIN*%
G70*
G01*
G75*
%ADD10C,0.00787*%
%ADD11C,0.01000*%
D10*
X101000Y215000D02*
Y225000D01*
X121000D01*
Y215000D02*
Y225000D01*
X101000Y215000D02*
X121000D01*
X60000D02*
Y225000D01*
X80000D01*
Y215000D02*
Y225000D01*
X60000Y215000D02*
X80000D01*
X15500Y231500D02*
X25500D01*
X15500Y171500D02*
X25500D01*
X15500D02*
Y231500D01*
X25500Y171500D02*
Y231500D01*
X33000Y236500D02*
X145500D01*
X25500D02*
X33000D01*
X25500Y226500D02*
Y236500D01*
Y226500D02*
X145500D01*
Y236500D01*
X145500Y166500D02*
Y176500D01*
X25500Y166500D02*
X145500D01*
X25500D02*
Y176500D01*
X33000D01*
X145500D01*
X377598Y239994D02*
Y280000D01*
X352992D02*
X377598D01*
X352992Y239994D02*
Y280000D01*
Y239994D02*
X377598D01*
D11*
X-8301Y54798D02*
X-9301Y55798D01*
X-11300D01*
X-12300Y54798D01*
Y50800D01*
X-11300Y49800D01*
X-9301D01*
X-8301Y50800D01*
X-3303Y55798D02*
X-5302D01*
X-6302Y54798D01*
Y50800D01*
X-5302Y49800D01*
X-3303D01*
X-2303Y50800D01*
Y54798D01*
X-3303Y55798D01*
X-304Y49800D02*
Y55798D01*
X3695Y49800D01*
Y55798D01*
X5694Y49800D02*
Y55798D01*
X9693Y49800D01*
Y55798D01*
X11692Y49800D02*
X13692D01*
X12692D01*
Y55798D01*
X11692Y54798D01*
X55000Y279998D02*
X56000Y280998D01*
X57999D01*
X58999Y279998D01*
Y278999D01*
X57999Y277999D01*
X56999D01*
X57999D01*
X58999Y276999D01*
Y276000D01*
X57999Y275000D01*
X56000D01*
X55000Y276000D01*
X60998Y280998D02*
Y276999D01*
X62997Y275000D01*
X64997Y276999D01*
Y280998D01*
X66996Y279998D02*
X67996Y280998D01*
X69995D01*
X70995Y279998D01*
Y278999D01*
X69995Y277999D01*
X68995D01*
X69995D01*
X70995Y276999D01*
Y276000D01*
X69995Y275000D01*
X67996D01*
X66996Y276000D01*
X78992Y275000D02*
Y280998D01*
X81991D01*
X82991Y279998D01*
Y277999D01*
X81991Y276999D01*
X78992D01*
X80992D02*
X82991Y275000D01*
X87989D02*
X85990D01*
X84990Y276000D01*
Y277999D01*
X85990Y278999D01*
X87989D01*
X88989Y277999D01*
Y276999D01*
X84990D01*
X92988Y273001D02*
X93987D01*
X94987Y274000D01*
Y278999D01*
X91988D01*
X90988Y277999D01*
Y276000D01*
X91988Y275000D01*
X94987D01*
X96986Y278999D02*
Y276000D01*
X97986Y275000D01*
X100985D01*
Y278999D01*
X102984Y275000D02*
X104984D01*
X103984D01*
Y280998D01*
X102984D01*
X108983Y278999D02*
X110982D01*
X111982Y277999D01*
Y275000D01*
X108983D01*
X107983Y276000D01*
X108983Y276999D01*
X111982D01*
X114981Y279998D02*
Y278999D01*
X113981D01*
X115980D01*
X114981D01*
Y276000D01*
X115980Y275000D01*
X119979D02*
X121978D01*
X122978Y276000D01*
Y277999D01*
X121978Y278999D01*
X119979D01*
X118979Y277999D01*
Y276000D01*
X119979Y275000D01*
X124977Y278999D02*
Y275000D01*
Y276999D01*
X125977Y277999D01*
X126977Y278999D01*
X127976D01*
X20099Y245898D02*
X18099D01*
X19099D01*
Y240900D01*
X18099Y239900D01*
X17100D01*
X16100Y240900D01*
X22098Y239900D02*
X24097D01*
X23098D01*
Y245898D01*
X22098Y244898D01*
X353600Y283400D02*
Y289398D01*
X357599Y283400D01*
Y289398D01*
X359598Y283400D02*
Y289398D01*
X362597D01*
X363597Y288398D01*
Y286399D01*
X362597Y285399D01*
X359598D01*
X361597D02*
X363597Y283400D01*
X369595Y289398D02*
X365596D01*
Y286399D01*
X367596D01*
X365596D01*
Y283400D01*
X375593D02*
X371594D01*
X375593Y287399D01*
Y288398D01*
X374593Y289398D01*
X372594D01*
X371594Y288398D01*
X380591Y283400D02*
Y289398D01*
X377592Y286399D01*
X381591D01*
X383590Y289398D02*
Y283400D01*
X387589D01*
X389588Y288398D02*
X390588Y289398D01*
X392587D01*
X393587Y288398D01*
Y284400D01*
X392587Y283400D01*
X390588D01*
X389588Y284400D01*
Y288398D01*
X395586Y283400D02*
X397586D01*
X396586D01*
Y289398D01*
X395586Y288398D01*
X108117Y122335D02*
Y116337D01*
Y119336D01*
X112115D01*
Y122335D01*
Y116337D01*
X114115Y122335D02*
Y116337D01*
X117114D01*
X118113Y117337D01*
Y121335D01*
X117114Y122335D01*
X114115D01*
X120113Y116337D02*
Y122335D01*
X123112D01*
X124111Y121335D01*
Y119336D01*
X123112Y118336D01*
X120113D01*
X122112D02*
X124111Y116337D01*
X129110D02*
Y122335D01*
X126111Y119336D01*
X130110D01*
X92600Y52083D02*
Y46085D01*
Y49084D01*
X96599D01*
Y52083D01*
Y46085D01*
X98598Y52083D02*
Y46085D01*
X101597D01*
X102597Y47085D01*
Y51083D01*
X101597Y52083D01*
X98598D01*
X104596Y46085D02*
Y52083D01*
X107595D01*
X108595Y51083D01*
Y49084D01*
X107595Y48084D01*
X104596D01*
X106596D02*
X108595Y46085D01*
X110594Y51083D02*
X111594Y52083D01*
X113593D01*
X114593Y51083D01*
Y50084D01*
X113593Y49084D01*
X112593D01*
X113593D01*
X114593Y48084D01*
Y47085D01*
X113593Y46085D01*
X111594D01*
X110594Y47085D01*
X21200Y132398D02*
Y126400D01*
X25199D01*
X30197D02*
X28198D01*
X27198Y127400D01*
Y129399D01*
X28198Y130399D01*
X30197D01*
X31197Y129399D01*
Y128399D01*
X27198D01*
X33196Y130399D02*
X35195Y126400D01*
X37195Y130399D01*
X42193Y126400D02*
X40194D01*
X39194Y127400D01*
Y129399D01*
X40194Y130399D01*
X42193D01*
X43193Y129399D01*
Y128399D01*
X39194D01*
X45192Y126400D02*
X47192D01*
X46192D01*
Y132398D01*
X45192D01*
X60187Y131398D02*
X59188Y132398D01*
X57188D01*
X56189Y131398D01*
Y130399D01*
X57188Y129399D01*
X59188D01*
X60187Y128399D01*
Y127400D01*
X59188Y126400D01*
X57188D01*
X56189Y127400D01*
X62187Y132398D02*
Y126400D01*
Y129399D01*
X63186Y130399D01*
X65186D01*
X66185Y129399D01*
Y126400D01*
X68185D02*
X70184D01*
X69184D01*
Y130399D01*
X68185D01*
X74183Y126400D02*
Y131398D01*
Y129399D01*
X73183D01*
X75182D01*
X74183D01*
Y131398D01*
X75182Y132398D01*
X79181Y131398D02*
Y130399D01*
X78182D01*
X80181D01*
X79181D01*
Y127400D01*
X80181Y126400D01*
X86179D02*
X84180D01*
X83180Y127400D01*
Y129399D01*
X84180Y130399D01*
X86179D01*
X87179Y129399D01*
Y128399D01*
X83180D01*
X89178Y130399D02*
Y126400D01*
Y128399D01*
X90178Y129399D01*
X91177Y130399D01*
X92177D01*
M02*
