G04*
G04 #@! TF.GenerationSoftware,Altium Limited,Altium Designer,18.1.9 (240)*
G04*
G04 Layer_Physical_Order=1*
G04 Layer_Color=255*
%FSLAX25Y25*%
%MOIN*%
G70*
G01*
G75*
%ADD18C,0.02000*%
%ADD19C,0.05000*%
%ADD20C,0.07874*%
%ADD21R,0.11811X0.07874*%
%ADD22R,0.07874X0.11811*%
%ADD23R,0.05906X0.05906*%
%ADD24C,0.05906*%
%ADD25R,0.05906X0.05906*%
%ADD26C,0.05000*%
G36*
X389000Y254190D02*
X388500Y254011D01*
X387829Y254829D01*
X386687Y255766D01*
X385384Y256463D01*
X383970Y256891D01*
X382500Y257036D01*
X381030Y256891D01*
X379616Y256463D01*
X378413Y255820D01*
X377894Y255984D01*
X377838Y256559D01*
X377383Y258058D01*
X376644Y259440D01*
X376185Y260000D01*
X376644Y260560D01*
X377383Y261942D01*
X377838Y263441D01*
X377991Y265000D01*
X377838Y266559D01*
X377383Y268058D01*
X376644Y269440D01*
X376185Y270000D01*
X376644Y270560D01*
X377383Y271942D01*
X377838Y273441D01*
X377991Y275000D01*
X377838Y276559D01*
X377383Y278058D01*
X376644Y279440D01*
X375651Y280651D01*
X374440Y281645D01*
X373058Y282383D01*
X371559Y282838D01*
X370000Y282991D01*
X368577Y282851D01*
X368465Y282953D01*
Y282953D01*
X352559D01*
Y277118D01*
X352059Y276939D01*
X351329Y277829D01*
X350187Y278766D01*
X348884Y279463D01*
X347470Y279891D01*
X346000Y280036D01*
X47953D01*
Y289453D01*
X389000D01*
X389000Y254190D01*
D02*
G37*
G36*
X352559Y267882D02*
Y267047D01*
X352559D01*
X352686Y266877D01*
X352673Y266547D01*
X352521Y265000D01*
X352674Y263441D01*
X353129Y261942D01*
X353867Y260560D01*
X354327Y260000D01*
X353867Y259440D01*
X353129Y258058D01*
X352674Y256559D01*
X352521Y255000D01*
X352674Y253441D01*
X353129Y251942D01*
X353867Y250560D01*
X354327Y250000D01*
X353867Y249440D01*
X353129Y248058D01*
X352674Y246559D01*
X352521Y245000D01*
X352674Y243441D01*
X353129Y241942D01*
X353867Y240560D01*
X354861Y239349D01*
X356072Y238355D01*
X357454Y237617D01*
X358953Y237162D01*
X360512Y237009D01*
X362071Y237162D01*
X363570Y237617D01*
X364951Y238355D01*
X365256Y238605D01*
X365560Y238355D01*
X366942Y237617D01*
X368441Y237162D01*
X370000Y237009D01*
X371559Y237162D01*
X373058Y237617D01*
X374440Y238355D01*
X375651Y239349D01*
X376000Y239775D01*
X376471Y239607D01*
Y233997D01*
X375003Y232529D01*
X343997D01*
X312025Y264502D01*
X312216Y264964D01*
X346000D01*
X347470Y265108D01*
X348884Y265537D01*
X350187Y266234D01*
X351329Y267171D01*
X352059Y268061D01*
X352559Y267882D01*
D02*
G37*
G36*
X32047Y277047D02*
X32047D01*
X32174Y276876D01*
X32161Y276547D01*
X32009Y275000D01*
X32162Y273441D01*
X32617Y271942D01*
X33356Y270560D01*
X33815Y270000D01*
X33356Y269440D01*
X32617Y268058D01*
X32162Y266559D01*
X32009Y265000D01*
X32162Y263441D01*
X32617Y261942D01*
X33356Y260560D01*
X34349Y259349D01*
X35560Y258355D01*
X36942Y257617D01*
X38441Y257162D01*
X40000Y257009D01*
X41559Y257162D01*
X43058Y257617D01*
X44440Y258355D01*
X45651Y259349D01*
X46644Y260560D01*
X47383Y261942D01*
X47838Y263441D01*
X47988Y264964D01*
X191284D01*
X191475Y264502D01*
X173237Y246263D01*
X172487Y245350D01*
X171930Y244307D01*
X171587Y243176D01*
X171471Y242000D01*
Y198997D01*
X147883Y175409D01*
X147389Y175483D01*
X147144Y175940D01*
X146151Y177151D01*
X144940Y178145D01*
X143558Y178883D01*
X142059Y179338D01*
X140500Y179491D01*
X138941Y179338D01*
X137442Y178883D01*
X136060Y178145D01*
X135500Y177685D01*
X134940Y178145D01*
X133558Y178883D01*
X132059Y179338D01*
X130500Y179491D01*
X128941Y179338D01*
X127442Y178883D01*
X126060Y178145D01*
X125500Y177685D01*
X124940Y178145D01*
X123558Y178883D01*
X122059Y179338D01*
X120500Y179491D01*
X118941Y179338D01*
X117442Y178883D01*
X116060Y178145D01*
X115500Y177685D01*
X114940Y178145D01*
X113558Y178883D01*
X112059Y179338D01*
X110500Y179491D01*
X108941Y179338D01*
X107442Y178883D01*
X106060Y178145D01*
X105500Y177685D01*
X104940Y178145D01*
X103558Y178883D01*
X102059Y179338D01*
X100500Y179491D01*
X98941Y179338D01*
X97442Y178883D01*
X96060Y178145D01*
X95500Y177685D01*
X94940Y178145D01*
X93558Y178883D01*
X92059Y179338D01*
X90500Y179491D01*
X88941Y179338D01*
X87442Y178883D01*
X86060Y178145D01*
X85500Y177685D01*
X84940Y178145D01*
X83558Y178883D01*
X82059Y179338D01*
X80500Y179491D01*
X78941Y179338D01*
X77442Y178883D01*
X76060Y178145D01*
X75500Y177685D01*
X74940Y178145D01*
X73558Y178883D01*
X72059Y179338D01*
X70500Y179491D01*
X68941Y179338D01*
X67442Y178883D01*
X66060Y178145D01*
X65500Y177685D01*
X64940Y178145D01*
X63558Y178883D01*
X62059Y179338D01*
X60500Y179491D01*
X58941Y179338D01*
X57442Y178883D01*
X56060Y178145D01*
X55500Y177685D01*
X54940Y178145D01*
X53558Y178883D01*
X52059Y179338D01*
X50500Y179491D01*
X48941Y179338D01*
X47442Y178883D01*
X46060Y178145D01*
X45500Y177685D01*
X44940Y178145D01*
X43558Y178883D01*
X42059Y179338D01*
X40500Y179491D01*
X38953Y179339D01*
X38623Y179326D01*
X38453Y179453D01*
Y179453D01*
X28453D01*
Y184453D01*
X28453D01*
X28326Y184624D01*
X28339Y184953D01*
X28491Y186500D01*
X28338Y188059D01*
X27883Y189558D01*
X27145Y190940D01*
X26685Y191500D01*
X27145Y192060D01*
X27883Y193442D01*
X28338Y194941D01*
X28491Y196500D01*
X28338Y198059D01*
X27883Y199558D01*
X27145Y200940D01*
X26685Y201500D01*
X27145Y202060D01*
X27883Y203442D01*
X28338Y204941D01*
X28491Y206500D01*
X28338Y208059D01*
X27883Y209558D01*
X27145Y210940D01*
X26685Y211500D01*
X27145Y212060D01*
X27883Y213442D01*
X28338Y214941D01*
X28491Y216500D01*
X28338Y218059D01*
X27883Y219558D01*
X27145Y220940D01*
X26685Y221500D01*
X27145Y222060D01*
X27883Y223442D01*
X27915Y223547D01*
X38453D01*
Y223547D01*
X38623Y223674D01*
X38953Y223661D01*
X40500Y223509D01*
X42059Y223662D01*
X43558Y224117D01*
X44940Y224855D01*
X45500Y225315D01*
X46060Y224855D01*
X47442Y224117D01*
X48941Y223662D01*
X50500Y223509D01*
X52059Y223662D01*
X53558Y224117D01*
X54940Y224855D01*
X55500Y225315D01*
X56060Y224855D01*
X57442Y224117D01*
X57703Y224038D01*
X57894Y223576D01*
X57617Y223058D01*
X57162Y221559D01*
X57009Y220000D01*
X57162Y218441D01*
X57617Y216942D01*
X58355Y215560D01*
X59349Y214349D01*
X60560Y213355D01*
X61942Y212617D01*
X63441Y212162D01*
X65000Y212009D01*
X66547Y212161D01*
X66877Y212174D01*
X67047Y212047D01*
Y212047D01*
X82953D01*
Y223933D01*
X83558Y224117D01*
X84940Y224855D01*
X85500Y225315D01*
X86060Y224855D01*
X87442Y224117D01*
X88941Y223662D01*
X90500Y223509D01*
X92059Y223662D01*
X93558Y224117D01*
X94940Y224855D01*
X95500Y225315D01*
X96060Y224855D01*
X97442Y224117D01*
X98563Y223777D01*
X98754Y223315D01*
X98617Y223058D01*
X98162Y221559D01*
X98009Y220000D01*
X98162Y218441D01*
X98617Y216942D01*
X99356Y215560D01*
X100349Y214349D01*
X101560Y213355D01*
X102942Y212617D01*
X104441Y212162D01*
X106000Y212009D01*
X107547Y212161D01*
X107877Y212174D01*
X108047Y212047D01*
Y212047D01*
X123953D01*
Y224328D01*
X124940Y224855D01*
X125500Y225315D01*
X126060Y224855D01*
X127442Y224117D01*
X128941Y223662D01*
X130500Y223509D01*
X132059Y223662D01*
X133558Y224117D01*
X134940Y224855D01*
X135500Y225315D01*
X136060Y224855D01*
X137442Y224117D01*
X138941Y223662D01*
X140500Y223509D01*
X142059Y223662D01*
X143558Y224117D01*
X144940Y224855D01*
X146151Y225849D01*
X147144Y227060D01*
X147883Y228442D01*
X148338Y229941D01*
X148491Y231500D01*
X148338Y233059D01*
X147883Y234558D01*
X147144Y235940D01*
X146151Y237151D01*
X144940Y238144D01*
X143558Y238883D01*
X142059Y239338D01*
X140500Y239491D01*
X138941Y239338D01*
X137442Y238883D01*
X136060Y238144D01*
X135500Y237685D01*
X134940Y238144D01*
X133558Y238883D01*
X132059Y239338D01*
X130500Y239491D01*
X128941Y239338D01*
X127442Y238883D01*
X126060Y238144D01*
X125500Y237685D01*
X124940Y238144D01*
X123558Y238883D01*
X122059Y239338D01*
X120500Y239491D01*
X118941Y239338D01*
X117442Y238883D01*
X116060Y238144D01*
X115500Y237685D01*
X114940Y238144D01*
X113558Y238883D01*
X112059Y239338D01*
X110500Y239491D01*
X108941Y239338D01*
X107442Y238883D01*
X106060Y238144D01*
X105500Y237685D01*
X104940Y238144D01*
X103558Y238883D01*
X102059Y239338D01*
X100500Y239491D01*
X98941Y239338D01*
X97442Y238883D01*
X96060Y238144D01*
X95500Y237685D01*
X94940Y238144D01*
X93558Y238883D01*
X92059Y239338D01*
X90500Y239491D01*
X88941Y239338D01*
X87442Y238883D01*
X86060Y238144D01*
X85500Y237685D01*
X84940Y238144D01*
X83558Y238883D01*
X82059Y239338D01*
X80500Y239491D01*
X78941Y239338D01*
X77442Y238883D01*
X76060Y238144D01*
X75500Y237685D01*
X74940Y238144D01*
X73558Y238883D01*
X72059Y239338D01*
X70500Y239491D01*
X68941Y239338D01*
X67442Y238883D01*
X66060Y238144D01*
X65500Y237685D01*
X64940Y238144D01*
X63558Y238883D01*
X62059Y239338D01*
X60500Y239491D01*
X58941Y239338D01*
X57442Y238883D01*
X56060Y238144D01*
X55500Y237685D01*
X54940Y238144D01*
X53558Y238883D01*
X52059Y239338D01*
X50500Y239491D01*
X48941Y239338D01*
X47442Y238883D01*
X46060Y238144D01*
X45500Y237685D01*
X44940Y238144D01*
X43558Y238883D01*
X42059Y239338D01*
X40500Y239491D01*
X38953Y239339D01*
X38623Y239326D01*
X38453Y239453D01*
Y239453D01*
X22547D01*
Y234662D01*
X22161Y234334D01*
X22047Y234339D01*
X20500Y234491D01*
X18941Y234338D01*
X17442Y233883D01*
X16060Y233144D01*
X14849Y232151D01*
X13856Y230940D01*
X13117Y229558D01*
X12662Y228059D01*
X12509Y226500D01*
X12662Y224941D01*
X13117Y223442D01*
X13856Y222060D01*
X14315Y221500D01*
X13856Y220940D01*
X13117Y219558D01*
X12662Y218059D01*
X12509Y216500D01*
X12662Y214941D01*
X13117Y213442D01*
X13856Y212060D01*
X14315Y211500D01*
X13856Y210940D01*
X13117Y209558D01*
X12662Y208059D01*
X12509Y206500D01*
X12662Y204941D01*
X13117Y203442D01*
X13856Y202060D01*
X14315Y201500D01*
X13856Y200940D01*
X13117Y199558D01*
X12662Y198059D01*
X12509Y196500D01*
X12662Y194941D01*
X13117Y193442D01*
X13856Y192060D01*
X14167Y191681D01*
X7171Y184684D01*
X6234Y183542D01*
X6033Y183166D01*
X5548Y183287D01*
Y289453D01*
X32047D01*
Y277047D01*
D02*
G37*
G36*
X22547Y163547D02*
X38453D01*
Y163547D01*
X38623Y163674D01*
X38953Y163661D01*
X40500Y163509D01*
X42059Y163662D01*
X43558Y164117D01*
X44940Y164856D01*
X45029Y164929D01*
X45423Y164605D01*
X45037Y163884D01*
X44609Y162470D01*
X44464Y161000D01*
Y98500D01*
X44521Y97913D01*
X44186Y97543D01*
X31615D01*
X31317Y97944D01*
X31468Y98441D01*
X31621Y100000D01*
X31468Y101559D01*
X31013Y103058D01*
X30274Y104440D01*
X29815Y105000D01*
X30274Y105560D01*
X31013Y106942D01*
X31468Y108441D01*
X31621Y110000D01*
X31468Y111559D01*
X31013Y113058D01*
X30274Y114440D01*
X29956Y114828D01*
X30239Y115173D01*
X30977Y116555D01*
X31432Y118054D01*
X31585Y119613D01*
X31432Y121172D01*
X30977Y122671D01*
X30239Y124052D01*
X29245Y125263D01*
X28034Y126257D01*
X26652Y126996D01*
X25153Y127450D01*
X23594Y127604D01*
X22035Y127450D01*
X20536Y126996D01*
X20465Y126958D01*
X20036Y127215D01*
Y165000D01*
Y168547D01*
X22547D01*
Y163547D01*
D02*
G37*
G36*
X337237Y222237D02*
X338151Y221487D01*
X339193Y220930D01*
X340324Y220587D01*
X341500Y220471D01*
X377500D01*
X378676Y220587D01*
X379807Y220930D01*
X380850Y221487D01*
X381763Y222237D01*
X386763Y227237D01*
X387513Y228150D01*
X388070Y229193D01*
X388413Y230324D01*
X388500Y231206D01*
X389000Y231181D01*
X389000Y9455D01*
X45390Y8574D01*
X45036Y8927D01*
Y18779D01*
X46504D01*
Y40591D01*
X28630D01*
Y28740D01*
X22882D01*
Y40591D01*
X5548D01*
Y99068D01*
X6033Y99190D01*
X6234Y98813D01*
X7171Y97671D01*
X9671Y95171D01*
X10813Y94234D01*
X12116Y93537D01*
X13530Y93108D01*
X15000Y92964D01*
X15678Y93031D01*
X16060Y92566D01*
X15756Y91566D01*
X15603Y90007D01*
X15756Y88447D01*
X16211Y86948D01*
X16950Y85567D01*
X17410Y85006D01*
X16950Y84446D01*
X16211Y83065D01*
X15756Y81565D01*
X15603Y80006D01*
X15756Y78448D01*
X16211Y76948D01*
X16950Y75567D01*
X17410Y75007D01*
X16950Y74446D01*
X16211Y73065D01*
X15756Y71566D01*
X15603Y70007D01*
X15756Y68448D01*
X16211Y66948D01*
X16950Y65567D01*
X17943Y64356D01*
X19154Y63362D01*
X20536Y62624D01*
X22035Y62169D01*
X23594Y62015D01*
X25153Y62169D01*
X26652Y62624D01*
X28034Y63362D01*
X29245Y64356D01*
X30239Y65567D01*
X30977Y66948D01*
X31432Y68448D01*
X31585Y70007D01*
X31432Y71566D01*
X30977Y73065D01*
X30239Y74446D01*
X29779Y75007D01*
X30239Y75567D01*
X30977Y76948D01*
X31432Y78448D01*
X31585Y80006D01*
X31432Y81565D01*
X31279Y82069D01*
X31577Y82470D01*
X54981D01*
X55279Y82069D01*
X55127Y81565D01*
X54973Y80006D01*
X55127Y78448D01*
X55581Y76948D01*
X56320Y75567D01*
X56780Y75007D01*
X56320Y74446D01*
X55581Y73065D01*
X55127Y71566D01*
X54973Y70007D01*
X55127Y68448D01*
X55581Y66948D01*
X56320Y65567D01*
X57314Y64356D01*
X58525Y63362D01*
X59906Y62624D01*
X61405Y62169D01*
X62964Y62015D01*
X64523Y62169D01*
X66022Y62624D01*
X67404Y63362D01*
X68615Y64356D01*
X69609Y65567D01*
X70347Y66948D01*
X70802Y68448D01*
X70955Y70007D01*
X70802Y71566D01*
X70347Y73065D01*
X69609Y74446D01*
X69149Y75007D01*
X69609Y75567D01*
X70347Y76948D01*
X70802Y78448D01*
X70955Y80006D01*
X70802Y81565D01*
X70347Y83065D01*
X69609Y84446D01*
X69149Y85006D01*
X69609Y85567D01*
X70347Y86948D01*
X70802Y88447D01*
X70955Y90007D01*
X70802Y91566D01*
X70347Y93065D01*
X69609Y94446D01*
X69169Y94981D01*
X69644Y95560D01*
X70383Y96942D01*
X70838Y98441D01*
X70991Y100000D01*
X70838Y101559D01*
X70383Y103058D01*
X69644Y104440D01*
X69185Y105000D01*
X69644Y105560D01*
X70383Y106942D01*
X70838Y108441D01*
X70991Y110000D01*
X70839Y111547D01*
X70826Y111876D01*
X70953Y112047D01*
X70953D01*
Y127953D01*
X59536D01*
Y157878D01*
X65829Y164171D01*
X66290Y164733D01*
X67442Y164117D01*
X68941Y163662D01*
X70500Y163509D01*
X72059Y163662D01*
X73558Y164117D01*
X74940Y164856D01*
X75500Y165315D01*
X76060Y164856D01*
X77442Y164117D01*
X78941Y163662D01*
X80500Y163509D01*
X82059Y163662D01*
X83558Y164117D01*
X84940Y164856D01*
X85500Y165315D01*
X86060Y164856D01*
X87442Y164117D01*
X88941Y163662D01*
X90500Y163509D01*
X92059Y163662D01*
X93558Y164117D01*
X94940Y164856D01*
X95500Y165315D01*
X96060Y164856D01*
X97442Y164117D01*
X98941Y163662D01*
X100500Y163509D01*
X102059Y163662D01*
X103558Y164117D01*
X104940Y164856D01*
X105500Y165315D01*
X106060Y164856D01*
X107442Y164117D01*
X108941Y163662D01*
X110500Y163509D01*
X112059Y163662D01*
X113558Y164117D01*
X114940Y164856D01*
X115500Y165315D01*
X116060Y164856D01*
X117442Y164117D01*
X118941Y163662D01*
X120500Y163509D01*
X122059Y163662D01*
X123558Y164117D01*
X124940Y164856D01*
X125500Y165315D01*
X126060Y164856D01*
X127442Y164117D01*
X128941Y163662D01*
X130500Y163509D01*
X132059Y163662D01*
X133558Y164117D01*
X134940Y164856D01*
X135500Y165315D01*
X136060Y164856D01*
X136517Y164611D01*
X136591Y164117D01*
X129402Y156928D01*
X129030Y156892D01*
X127616Y156463D01*
X126313Y155766D01*
X125171Y154829D01*
X124234Y153687D01*
X123537Y152384D01*
X123108Y150970D01*
X122964Y149500D01*
X123108Y148030D01*
X123537Y146616D01*
X124234Y145313D01*
X125171Y144171D01*
X126313Y143234D01*
X127616Y142537D01*
X129030Y142109D01*
X130500Y141964D01*
X131970Y142109D01*
X133384Y142537D01*
X134687Y143234D01*
X135829Y144171D01*
X136766Y145313D01*
X137463Y146616D01*
X137891Y148030D01*
X137928Y148402D01*
X181763Y192237D01*
X182513Y193150D01*
X183070Y194193D01*
X183413Y195324D01*
X183529Y196500D01*
Y239503D01*
X187728Y243702D01*
X188190Y243511D01*
Y58954D01*
X241488D01*
Y254971D01*
X304503D01*
X337237Y222237D01*
D02*
G37*
G36*
X14811Y10866D02*
X29964D01*
Y8534D01*
X5901Y8472D01*
X5548Y8826D01*
Y18779D01*
X14811D01*
Y10866D01*
D02*
G37*
%LPC*%
G36*
X110500Y117998D02*
X108941Y117844D01*
X107442Y117389D01*
X106060Y116651D01*
X104849Y115657D01*
X103856Y114446D01*
X103117Y113065D01*
X102662Y111565D01*
X102509Y110006D01*
X102662Y108448D01*
X103117Y106948D01*
X103856Y105567D01*
X104315Y105007D01*
X103856Y104446D01*
X103117Y103065D01*
X102662Y101566D01*
X102509Y100006D01*
X102662Y98448D01*
X103117Y96948D01*
X103856Y95567D01*
X104315Y95007D01*
X103856Y94446D01*
X103117Y93065D01*
X102662Y91566D01*
X102509Y90007D01*
X102661Y88459D01*
X102674Y88130D01*
X102547Y87959D01*
X102547D01*
Y72054D01*
X118453D01*
Y87959D01*
X118453D01*
X118326Y88130D01*
X118339Y88459D01*
X118491Y90007D01*
X118338Y91566D01*
X117883Y93065D01*
X117145Y94446D01*
X116685Y95007D01*
X117145Y95567D01*
X117883Y96948D01*
X118338Y98448D01*
X118491Y100006D01*
X118338Y101566D01*
X117883Y103065D01*
X117145Y104446D01*
X116685Y105007D01*
X117145Y105567D01*
X117883Y106948D01*
X118338Y108448D01*
X118491Y110006D01*
X118338Y111565D01*
X117883Y113065D01*
X117145Y114446D01*
X116151Y115657D01*
X114940Y116651D01*
X113558Y117389D01*
X112059Y117844D01*
X110500Y117998D01*
D02*
G37*
G36*
X95000Y47676D02*
X93441Y47523D01*
X91942Y47068D01*
X90560Y46330D01*
X89349Y45336D01*
X88355Y44125D01*
X87617Y42743D01*
X87162Y41244D01*
X87009Y39685D01*
X87162Y38126D01*
X87617Y36627D01*
X88355Y35245D01*
X88815Y34685D01*
X88355Y34125D01*
X87617Y32743D01*
X87162Y31244D01*
X87009Y29685D01*
X87161Y28138D01*
X87174Y27808D01*
X87047Y27638D01*
X87047D01*
Y11732D01*
X102953D01*
Y27638D01*
X102953D01*
X102826Y27808D01*
X102839Y28138D01*
X102991Y29685D01*
X102838Y31244D01*
X102383Y32743D01*
X101645Y34125D01*
X101185Y34685D01*
X101645Y35245D01*
X102383Y36627D01*
X102838Y38126D01*
X102991Y39685D01*
X102838Y41244D01*
X102383Y42743D01*
X101645Y44125D01*
X100651Y45336D01*
X99440Y46330D01*
X98058Y47068D01*
X96559Y47523D01*
X95000Y47676D01*
D02*
G37*
%LPD*%
D18*
X196500Y261000D02*
X307000D01*
X177500Y242000D02*
X196500Y261000D01*
X177500Y196500D02*
Y242000D01*
X382500Y231500D02*
Y249500D01*
X377500Y226500D02*
X382500Y231500D01*
X341500Y226500D02*
X377500D01*
X307000Y261000D02*
X341500Y226500D01*
X130500Y149500D02*
X177500Y196500D01*
D19*
X40000Y275000D02*
X42500Y272500D01*
X346000D01*
X60493Y90007D02*
X62964D01*
X23594D02*
X60493D01*
X52000Y98500D02*
X60493Y90007D01*
X52000Y98500D02*
Y161000D01*
X60500Y169500D01*
Y171500D01*
X12500Y103000D02*
X15000Y100500D01*
X12500Y103000D02*
Y165000D01*
Y179355D01*
X19645Y186500D01*
X20500D01*
X37500Y29618D02*
X37567Y29685D01*
X37500Y8500D02*
Y29618D01*
D20*
X205000Y245000D02*
X228614D01*
Y233193D01*
X224679Y229257D01*
X216807D01*
X212872Y233193D01*
Y245000D01*
Y237128D02*
X205000Y229257D01*
X224679Y205643D02*
X228614Y209578D01*
Y217450D01*
X224679Y221386D01*
X208936D01*
X205000Y217450D01*
Y209578D01*
X208936Y205643D01*
X201064Y197771D02*
Y182028D01*
X205000Y174157D02*
X228614D01*
Y162350D01*
X224679Y158414D01*
X216807D01*
X212872Y162350D01*
Y174157D01*
Y166285D02*
X205000Y158414D01*
X228614Y150542D02*
X205000Y134799D01*
X228614D02*
X205000Y150542D01*
X201064Y126928D02*
Y111185D01*
X228614Y103314D02*
X212872D01*
X205000Y95442D01*
X212872Y87571D01*
X228614D01*
X205000Y79699D02*
Y71828D01*
Y75763D01*
X228614D01*
X224679Y79699D01*
D21*
X25717Y19803D02*
D03*
D22*
X13945Y29685D02*
D03*
X37567D02*
D03*
D23*
X40000Y285000D02*
D03*
X20500Y176500D02*
D03*
X360512Y275000D02*
D03*
X110500Y80006D02*
D03*
X95000Y19685D02*
D03*
X63000Y120000D02*
D03*
D24*
X40000Y275000D02*
D03*
Y265000D02*
D03*
X106000Y220000D02*
D03*
X65000D02*
D03*
X20500Y186500D02*
D03*
Y196500D02*
D03*
Y206500D02*
D03*
Y216500D02*
D03*
Y226500D02*
D03*
X140500Y231500D02*
D03*
X130500D02*
D03*
X120500D02*
D03*
X110500D02*
D03*
X100500D02*
D03*
X90500D02*
D03*
X80500D02*
D03*
X70500D02*
D03*
X60500D02*
D03*
X50500D02*
D03*
X40500D02*
D03*
X40500Y171500D02*
D03*
X50500D02*
D03*
X60500D02*
D03*
X70500D02*
D03*
X80500D02*
D03*
X90500D02*
D03*
X100500D02*
D03*
X110500D02*
D03*
X120500D02*
D03*
X130500D02*
D03*
X140500D02*
D03*
X370000Y255000D02*
D03*
Y245000D02*
D03*
Y265000D02*
D03*
Y275000D02*
D03*
X360512Y265000D02*
D03*
Y245000D02*
D03*
Y255000D02*
D03*
X110500Y90007D02*
D03*
Y110006D02*
D03*
Y100006D02*
D03*
X95000Y29685D02*
D03*
Y39685D02*
D03*
X23594Y119613D02*
D03*
X23630Y110000D02*
D03*
Y100000D02*
D03*
X23594Y80006D02*
D03*
Y90007D02*
D03*
Y70007D02*
D03*
X62964D02*
D03*
Y90007D02*
D03*
Y80006D02*
D03*
X63000Y100000D02*
D03*
Y110000D02*
D03*
D25*
X116000Y220000D02*
D03*
X75000D02*
D03*
X30500Y231500D02*
D03*
X30500Y171500D02*
D03*
D26*
X382500Y249500D02*
D03*
X130500Y149500D02*
D03*
X346000Y272500D02*
D03*
X15000Y100500D02*
D03*
X12500Y165000D02*
D03*
X37500Y8500D02*
D03*
M02*
