G04*
G04 #@! TF.GenerationSoftware,Altium Limited,Altium Designer,18.1.9 (240)*
G04*
G04 Layer_Color=255*
%FSLAX25Y25*%
%MOIN*%
G70*
G01*
G75*
%ADD21R,0.11811X0.07874*%
%ADD22R,0.07874X0.11811*%
%ADD23R,0.05906X0.05906*%
%ADD24C,0.05906*%
%ADD25R,0.05906X0.05906*%
D21*
X25717Y19803D02*
D03*
D22*
X13945Y29685D02*
D03*
X37567D02*
D03*
D23*
X40000Y285000D02*
D03*
X20500Y176500D02*
D03*
X360512Y275000D02*
D03*
X110500Y80006D02*
D03*
X95000Y19685D02*
D03*
X63000Y120000D02*
D03*
D24*
X40000Y275000D02*
D03*
Y265000D02*
D03*
X106000Y220000D02*
D03*
X65000D02*
D03*
X20500Y186500D02*
D03*
Y196500D02*
D03*
Y206500D02*
D03*
Y216500D02*
D03*
Y226500D02*
D03*
X140500Y231500D02*
D03*
X130500D02*
D03*
X120500D02*
D03*
X110500D02*
D03*
X100500D02*
D03*
X90500D02*
D03*
X80500D02*
D03*
X70500D02*
D03*
X60500D02*
D03*
X50500D02*
D03*
X40500D02*
D03*
X40500Y171500D02*
D03*
X50500D02*
D03*
X60500D02*
D03*
X70500D02*
D03*
X80500D02*
D03*
X90500D02*
D03*
X100500D02*
D03*
X110500D02*
D03*
X120500D02*
D03*
X130500D02*
D03*
X140500D02*
D03*
X370000Y255000D02*
D03*
Y245000D02*
D03*
Y265000D02*
D03*
Y275000D02*
D03*
X360512Y265000D02*
D03*
Y245000D02*
D03*
Y255000D02*
D03*
X110500Y90007D02*
D03*
Y110006D02*
D03*
Y100006D02*
D03*
X95000Y29685D02*
D03*
Y39685D02*
D03*
X23594Y119613D02*
D03*
X23630Y110000D02*
D03*
Y100000D02*
D03*
X23594Y80006D02*
D03*
Y90007D02*
D03*
Y70007D02*
D03*
X62964D02*
D03*
Y90007D02*
D03*
Y80006D02*
D03*
X63000Y100000D02*
D03*
Y110000D02*
D03*
D25*
X116000Y220000D02*
D03*
X75000D02*
D03*
X30500Y231500D02*
D03*
X30500Y171500D02*
D03*
M02*
