M48
;Layer_Color=9474304
;FILE_FORMAT=2:5
INCH,LZ
;TYPE=PLATED
T1F00S00C0.02800
T2F00S00C0.03543
%
T01
X00375Y00085
X01305Y01495
X00125Y0165
X0015Y01005
X0346Y02725
X03825Y02495
T02
X0095Y0019685
Y0029685
Y0039685
X01105Y0080006
Y0090007
Y0100006
Y0110006
X0063Y011
Y01
X0062964Y0090007
Y0080006
Y0070007
X0063Y012
X00605Y01715
X00705
X00805
X00905
X01005
X01105
X01205
X01305
X01405
X00505
X00405
X00305
X00205Y01765
Y01865
Y01965
Y02065
X0023594Y0119613
X002363Y011
Y01
X0023594Y0090007
Y0080006
Y0070007
X00205Y02165
Y02265
X00305Y02315
X00405
X00505
X004Y0265
Y0275
Y0285
X00605Y02315
X00705
X00805
X00905
X01005
X01105
X01205
X01305
X01405
X0116Y022
X0106
X0075
X0065
X0360512Y0245
Y0255
Y0265
Y0275
X037
Y0265
Y0255
Y0245
M30
