G04*
G04 #@! TF.GenerationSoftware,Altium Limited,Altium Designer,18.1.9 (240)*
G04*
G04 Layer_Color=2752767*
%FSLAX25Y25*%
%MOIN*%
G70*
G01*
G75*
%ADD28C,0.00200*%
%ADD29C,0.00267*%
D28*
X24916Y19003D02*
Y20603D01*
X26517D01*
Y19003D01*
X24916D01*
X13145Y28885D02*
Y30485D01*
X14745D01*
Y28885D01*
X13145D01*
X36767D02*
Y30485D01*
X38367D01*
Y28885D01*
X36767D01*
X382500Y248700D02*
X381700Y250300D01*
X383300D01*
X382500Y248700D01*
X130500Y148700D02*
X129700Y150300D01*
X131300D01*
X130500Y148700D01*
X346000Y271700D02*
X345200Y273300D01*
X346800D01*
X346000Y271700D01*
X15000Y99700D02*
X14200Y101300D01*
X15800D01*
X15000Y99700D01*
X12500Y164200D02*
X11700Y165800D01*
X13300D01*
X12500Y164200D01*
X37500Y7700D02*
X36700Y9300D01*
X38300D01*
X37500Y7700D01*
D29*
X40800Y285000D02*
G03*
X40800Y285000I-800J0D01*
G01*
Y275000D02*
G03*
X40800Y275000I-800J0D01*
G01*
Y265000D02*
G03*
X40800Y265000I-800J0D01*
G01*
X116800Y220000D02*
G03*
X116800Y220000I-800J0D01*
G01*
X106800D02*
G03*
X106800Y220000I-800J0D01*
G01*
X75800D02*
G03*
X75800Y220000I-800J0D01*
G01*
X65800D02*
G03*
X65800Y220000I-800J0D01*
G01*
X21300Y176500D02*
G03*
X21300Y176500I-800J0D01*
G01*
Y186500D02*
G03*
X21300Y186500I-800J0D01*
G01*
Y196500D02*
G03*
X21300Y196500I-800J0D01*
G01*
Y206500D02*
G03*
X21300Y206500I-800J0D01*
G01*
Y216500D02*
G03*
X21300Y216500I-800J0D01*
G01*
Y226500D02*
G03*
X21300Y226500I-800J0D01*
G01*
X141300Y231500D02*
G03*
X141300Y231500I-800J0D01*
G01*
X131300D02*
G03*
X131300Y231500I-800J0D01*
G01*
X121300D02*
G03*
X121300Y231500I-800J0D01*
G01*
X111300D02*
G03*
X111300Y231500I-800J0D01*
G01*
X101300D02*
G03*
X101300Y231500I-800J0D01*
G01*
X91300D02*
G03*
X91300Y231500I-800J0D01*
G01*
X81300D02*
G03*
X81300Y231500I-800J0D01*
G01*
X71300D02*
G03*
X71300Y231500I-800J0D01*
G01*
X61300D02*
G03*
X61300Y231500I-800J0D01*
G01*
X51300D02*
G03*
X51300Y231500I-800J0D01*
G01*
X41300D02*
G03*
X41300Y231500I-800J0D01*
G01*
X31300D02*
G03*
X31300Y231500I-800J0D01*
G01*
X31300Y171500D02*
G03*
X31300Y171500I-800J0D01*
G01*
X41300D02*
G03*
X41300Y171500I-800J0D01*
G01*
X51300D02*
G03*
X51300Y171500I-800J0D01*
G01*
X61300D02*
G03*
X61300Y171500I-800J0D01*
G01*
X71300D02*
G03*
X71300Y171500I-800J0D01*
G01*
X81300D02*
G03*
X81300Y171500I-800J0D01*
G01*
X91300D02*
G03*
X91300Y171500I-800J0D01*
G01*
X101300D02*
G03*
X101300Y171500I-800J0D01*
G01*
X111300D02*
G03*
X111300Y171500I-800J0D01*
G01*
X121300D02*
G03*
X121300Y171500I-800J0D01*
G01*
X131300D02*
G03*
X131300Y171500I-800J0D01*
G01*
X141300D02*
G03*
X141300Y171500I-800J0D01*
G01*
X370800Y255000D02*
G03*
X370800Y255000I-800J0D01*
G01*
Y245000D02*
G03*
X370800Y245000I-800J0D01*
G01*
Y265000D02*
G03*
X370800Y265000I-800J0D01*
G01*
Y275000D02*
G03*
X370800Y275000I-800J0D01*
G01*
X361312D02*
G03*
X361312Y275000I-800J0D01*
G01*
Y265000D02*
G03*
X361312Y265000I-800J0D01*
G01*
Y245000D02*
G03*
X361312Y245000I-800J0D01*
G01*
Y255000D02*
G03*
X361312Y255000I-800J0D01*
G01*
X111300Y80006D02*
G03*
X111300Y80006I-800J0D01*
G01*
Y90007D02*
G03*
X111300Y90007I-800J0D01*
G01*
Y110006D02*
G03*
X111300Y110006I-800J0D01*
G01*
Y100006D02*
G03*
X111300Y100006I-800J0D01*
G01*
X95800Y19685D02*
G03*
X95800Y19685I-800J0D01*
G01*
Y29685D02*
G03*
X95800Y29685I-800J0D01*
G01*
Y39685D02*
G03*
X95800Y39685I-800J0D01*
G01*
X24394Y119613D02*
G03*
X24394Y119613I-800J0D01*
G01*
X24430Y110000D02*
G03*
X24430Y110000I-800J0D01*
G01*
Y100000D02*
G03*
X24430Y100000I-800J0D01*
G01*
X24394Y80006D02*
G03*
X24394Y80006I-800J0D01*
G01*
Y90007D02*
G03*
X24394Y90007I-800J0D01*
G01*
Y70007D02*
G03*
X24394Y70007I-800J0D01*
G01*
X63764D02*
G03*
X63764Y70007I-800J0D01*
G01*
Y90007D02*
G03*
X63764Y90007I-800J0D01*
G01*
Y80006D02*
G03*
X63764Y80006I-800J0D01*
G01*
X63800Y100000D02*
G03*
X63800Y100000I-800J0D01*
G01*
Y110000D02*
G03*
X63800Y110000I-800J0D01*
G01*
Y120000D02*
G03*
X63800Y120000I-800J0D01*
G01*
M02*
